<svg width="533" height="32" viewBox="0 0 533 32" fill="none" xmlns="http://www.w3.org/2000/svg">
<path d="M510.687 4.91639C508.695 5.06537 506.902 5.06537 504.909 5.21436C502.319 5.36334 499.729 5.6613 496.94 5.81028C492.557 6.10825 488.174 6.70417 483.991 7.44908C479.409 8.34297 475.026 9.53482 470.842 11.1736C470.045 11.4716 469.248 11.9185 468.252 12.0675C467.256 12.3655 466.459 12.6634 465.463 12.9614C464.068 13.4083 462.873 13.7063 461.478 14.0043C459.885 14.3022 458.291 14.6002 456.697 14.7492C455.302 14.8982 453.908 14.8982 452.513 14.8982C451.119 14.8982 449.923 14.7492 448.529 14.7492C446.736 14.6002 444.943 14.3022 443.15 13.8553C441.357 13.4083 439.564 12.9614 437.771 12.3655C434.782 11.3226 431.794 10.1307 428.806 8.9389C427.411 8.34297 426.216 7.74704 424.821 7.00214C423.227 6.25723 421.634 5.51232 420.04 4.76741C418.844 4.17149 417.45 3.72454 416.055 3.2776C415.258 2.97963 414.262 2.83065 413.266 2.68167C412.27 2.53269 411.473 2.53269 410.477 2.38371C409.879 2.38371 409.282 2.38371 408.883 2.53269C408.086 2.68167 407.289 2.83065 406.492 2.97963C405.297 3.2776 404.102 3.72454 402.906 4.17149C400.516 5.06537 398.324 5.95926 395.934 6.85315C392.945 8.04501 390.156 9.08788 386.969 10.1307C385.175 10.7267 383.183 11.1736 381.39 11.6206C378.8 12.2165 376.41 12.5145 373.82 12.8124C371.429 13.1104 368.839 13.1104 366.448 13.2594C363.659 13.2594 360.87 13.1104 358.081 12.8124C354.495 12.3655 351.108 11.9185 347.522 11.3226C344.334 10.7267 341.147 9.98177 338.159 9.08788C335.17 8.04501 332.182 7.00214 329.193 5.81028C325.807 4.46945 322.42 3.12861 318.834 2.23472C317.439 1.78778 316.045 1.6388 314.451 1.34083C312.857 1.04287 311.064 1.04287 309.271 1.04287C307.478 1.04287 305.884 1.34083 304.091 1.6388C302.298 1.93676 300.704 2.53269 299.111 3.12861C295.325 4.61843 291.938 6.55519 288.552 8.49195C286.559 9.6838 284.567 10.8757 282.575 12.0675C280.981 12.9614 279.188 14.0043 277.395 14.8982C275.602 15.7921 273.61 16.537 271.618 17.2819C270.621 17.5798 269.825 17.8778 268.828 18.0268C267.633 18.3247 266.239 18.4737 265.043 18.6227C264.445 18.6227 264.047 18.6227 263.449 18.6227C263.051 18.6227 262.652 18.6227 262.254 18.6227C261.258 18.4737 260.262 18.1758 259.266 17.8778C255.68 16.537 252.293 14.8982 249.105 13.1104C247.511 12.2165 246.117 11.3226 244.722 10.2797C243.726 9.53482 242.73 8.9389 241.734 8.19399C239.144 6.40621 236.753 4.32047 233.964 2.68167C232.769 2.08574 231.573 1.48982 230.179 0.89389C229.382 0.595927 228.585 0.446945 227.788 0.297963C227.589 0.297963 227.191 0.148982 226.991 0.148982C226.394 0.148982 225.796 0 225.398 0C225.198 0 224.8 0 224.601 0H224.401C224.003 0 223.405 0 223.007 0.148982C222.011 0.297963 221.214 0.446945 220.218 0.595926C218.425 1.04287 216.632 1.48982 214.839 2.08574C213.444 2.53269 212.049 2.97963 210.655 3.57556C209.659 3.87352 208.663 4.32047 207.667 4.61843C206.073 5.21436 204.678 5.81028 203.084 6.40621C202.287 6.70417 201.491 7.00214 200.893 7.3001C199.498 7.89603 198.104 8.64093 196.908 9.23686C195.912 9.6838 194.916 10.1307 193.92 10.7267C191.33 11.9185 188.939 13.2594 186.35 14.4512C180.97 17.1329 175.392 19.8146 169.415 21.7513C168.021 22.1983 166.826 22.4962 165.431 22.9432C163.837 23.3901 162.044 23.6881 160.251 23.8371C159.454 23.8371 158.857 23.986 158.06 23.986C156.864 23.986 155.868 23.986 154.673 23.8371C153.079 23.6881 151.485 23.3901 150.091 22.9432C148.497 22.3472 146.903 21.6023 145.509 20.8574C143.118 19.5166 141.126 17.8778 139.133 16.239C138.137 15.4941 137.141 14.6002 136.145 13.8553C134.95 12.9614 133.555 12.0675 132.36 11.1736C131.164 10.4287 130.168 9.83279 128.774 9.38584C127.578 9.6838 126.781 9.38584 125.985 9.23686C125.188 9.08788 124.391 8.9389 123.594 8.9389C122.996 8.9389 122.598 8.9389 122 9.08788C121.203 9.23686 120.605 9.38584 119.809 9.68381C119.211 9.98177 118.414 10.2797 117.816 10.5777C117.219 11.0246 116.621 11.4716 116.223 11.9185C115.226 12.8124 114.23 13.7063 113.433 14.6002C112.636 15.3451 111.84 15.941 111.242 16.6859C110.445 17.4308 109.449 18.3247 108.652 19.0696C106.859 20.7084 104.867 22.0493 102.675 23.3901C101.081 24.284 99.2885 25.0289 97.4954 25.7738C95.7024 26.2208 94.1086 26.5187 92.3156 26.8167C89.7257 26.9657 87.335 26.9657 84.7451 26.8167C80.7606 26.3697 76.9753 25.4759 73.1901 24.284C69.8032 23.0922 66.6157 21.9003 63.4281 20.4105C61.8343 19.6656 60.2405 18.9207 58.6467 18.0268C57.0529 17.2819 55.4591 16.388 53.8653 15.6431C52.2715 14.7492 50.6777 14.0043 49.0839 13.2594C47.4901 12.5145 45.6971 11.7695 43.9041 11.1736C40.5173 9.98177 36.9312 9.23686 33.3452 9.38584C32.5483 9.38584 31.5522 9.53482 30.7553 9.53482C29.7591 9.6838 28.9622 9.83279 28.1654 9.98177C27.3685 10.1307 26.5716 10.4287 25.9739 10.5777C25.177 10.8757 24.3801 11.1736 23.5832 11.3226C19.3995 12.3655 16.0127 13.8553 12.8251 15.4941C10.0359 16.9839 7.24679 18.6227 4.85609 20.5595C3.66075 21.4534 2.66463 22.3472 1.6685 23.2411C1.27006 23.6881 0.871607 24.135 0.672382 24.7309C0.672382 24.8799 0.473158 25.1779 0.473158 25.3269C0.273934 25.7738 0.273934 26.2208 0.0747092 26.6677C-0.124515 27.2636 0.0747091 27.8596 0.672382 28.3065C1.27006 28.6045 2.06695 28.7535 2.86385 28.6045C3.46152 28.4555 3.85997 28.3065 4.45765 28.3065C5.25454 28.1575 5.85222 27.8596 6.64911 27.5616C7.64524 27.1147 8.04368 26.0718 7.44601 25.3269C7.04756 24.8799 6.64911 24.7309 6.05144 24.582C8.04368 22.9432 10.2352 21.4534 12.4266 19.9635C16.2119 17.8778 20.1964 16.239 24.3801 14.7492C25.3762 14.4512 26.3723 14.1533 27.3685 13.8553C28.5638 13.7063 29.9584 13.4083 31.1537 13.2594C32.3491 13.1104 33.3452 13.1104 34.5405 13.2594C35.3374 13.4083 35.9351 13.4083 36.732 13.5573C37.9273 13.8553 38.9235 14.1533 39.9196 14.4512C41.9118 15.1961 43.9041 15.941 45.6971 16.8349C47.8886 17.8778 49.8808 19.0696 52.0723 20.2615C54.0645 21.3044 56.256 22.4962 58.4475 23.5391C60.6389 24.582 62.8304 25.6248 65.0219 26.5187C69.4048 28.3065 73.987 29.7963 78.5691 30.8392C83.3505 31.8821 88.5303 32.329 93.7102 31.7331C96.1009 31.4351 98.2923 30.9882 100.484 30.3923C102.675 29.6473 104.668 28.9024 106.461 27.8596C108.453 26.8167 110.246 25.4759 112.039 24.135C113.035 23.3901 113.832 22.6452 114.629 21.9003C115.824 20.7084 117.019 19.6656 118.215 18.4737C119.609 17.1329 121.004 15.6431 122.797 14.3022C122.996 14.3022 122.996 14.1533 123.195 14.1533C123.395 14.1533 123.594 14.0043 123.793 14.0043H123.992C124.391 14.0043 124.59 14.1533 124.988 14.1533C125.785 14.4512 126.582 14.7492 127.379 15.1961C129.571 16.388 131.364 17.8778 133.157 19.3676C135.547 21.1554 137.938 23.0922 140.528 24.7309C141.723 25.4759 142.919 26.0718 144.114 26.6677C145.509 27.4126 147.102 27.8596 148.696 28.3065C150.091 28.7535 151.684 28.9024 153.278 29.2004C155.071 29.3494 157.064 29.4984 158.857 29.3494C160.45 29.3494 162.044 29.0514 163.439 28.9024C165.232 28.6045 167.025 28.1575 168.818 27.7106C172.205 26.8167 175.392 25.6248 178.381 24.433C182.963 22.6452 187.146 20.4105 191.33 18.3247C193.322 17.2819 195.315 16.239 197.506 15.1961C199.897 14.0043 202.287 12.9614 204.678 11.7695C204.877 11.6206 205.276 11.4716 205.475 11.4716C206.272 11.1736 207.069 10.8757 207.866 10.4287C209.061 9.98177 210.256 9.38584 211.651 8.9389C211.85 8.78992 212.249 8.78992 212.448 8.64093C213.245 8.34297 214.241 8.04501 215.038 7.74704C216.432 7.3001 218.026 6.70417 219.421 6.25723C220.815 5.81028 222.409 5.51232 224.003 5.21436C224.401 5.21436 224.601 5.21436 224.999 5.21436C225.198 5.21436 225.597 5.21436 225.796 5.21436C226.394 5.36334 226.991 5.51232 227.788 5.6613C228.784 6.10825 229.78 6.55519 230.777 7.15112C233.765 9.08788 236.355 11.1736 239.144 13.1104C240.937 14.3022 242.73 15.4941 244.523 16.6859C246.316 17.7288 248.109 18.6227 249.902 19.6656C251.894 20.7084 253.887 21.4534 255.879 22.3472C257.672 23.0922 259.863 23.5391 261.856 23.8371C262.852 23.986 263.649 23.986 264.645 23.8371C265.84 23.8371 267.035 23.6881 268.231 23.3901C270.223 23.0921 272.215 22.6452 274.008 22.0493C276.2 21.3044 278.192 20.5595 280.184 19.6656C282.973 18.3247 285.364 16.8349 287.954 15.3451C289.349 14.4512 290.942 13.5573 292.337 12.6634C293.532 11.9185 294.728 11.3226 295.923 10.5777C298.513 9.08788 301.103 7.89603 304.091 6.85315C305.486 6.40621 306.88 6.10825 308.474 5.95926C309.271 5.95926 309.869 5.81028 310.666 5.81028C311.263 5.81028 311.861 5.81028 312.658 5.95926C315.048 6.25723 317.24 6.70417 319.431 7.3001C321.224 7.89603 323.217 8.64093 325.01 9.23686C326.205 9.6838 327.201 10.1307 328.397 10.5777C329.393 11.0246 330.588 11.4716 331.783 11.9185C333.975 12.6634 336.166 13.4083 338.358 14.1533C340.748 14.8982 343.139 15.3451 345.53 15.7921C350.71 16.8349 355.889 17.4308 361.069 17.8778C363.659 18.1758 366.448 18.1758 369.038 18.1758C371.628 18.1758 374.218 17.8778 376.808 17.5798C381.39 17.1329 385.972 16.09 390.355 14.7492C393.144 13.8553 395.734 12.8124 398.524 11.7695C401.711 10.5777 404.899 9.23686 408.285 8.04501C408.883 7.89603 409.68 7.74704 410.278 7.59806C410.676 7.59806 411.075 7.59806 411.473 7.59806C412.469 7.74704 413.266 7.89603 414.262 8.19399C417.251 9.23686 419.841 10.7267 422.63 12.0675C425.419 13.5573 428.407 14.7492 431.396 15.941C434.384 17.1329 437.572 18.0268 440.759 18.9207C444.345 19.8146 448.13 20.2615 451.916 20.4105C455.302 20.5595 458.689 20.2615 461.877 19.6656C464.666 19.2186 467.455 18.3247 470.045 17.4308C471.24 16.9839 472.237 16.6859 473.432 16.239C474.229 15.941 474.826 15.6431 475.623 15.3451C476.619 14.8982 477.815 14.6002 478.811 14.1533C484.19 12.5145 489.768 11.6206 495.546 11.0246C498.534 10.7267 501.722 10.5777 504.909 10.2797C507.499 10.1307 510.288 9.98177 512.878 9.83279C518.257 9.53482 523.836 9.23686 529.215 9.38584C531.406 9.38584 533 8.04501 533 6.55519C533 5.06537 531.207 3.72454 529.215 3.72454C525.031 3.72454 520.847 4.0225 516.863 4.17149C514.671 4.61843 512.679 4.76741 510.687 4.91639ZM409.68 7.74704C409.879 7.74704 409.879 7.74704 410.079 7.74704C409.879 7.74704 409.68 7.74704 409.68 7.74704Z" fill="#00668B"/>
</svg>
