<svg width="50" height="50" viewBox="0 0 50 50" fill="none" xmlns="http://www.w3.org/2000/svg">
<path d="M15.4027 27.837C14.5747 26.402 12.7397 25.91 11.3047 26.739C9.8697 27.567 9.37774 29.402 10.2067 30.837L15.2067 39.497C19.3487 46.671 28.5227 49.13 35.6967 44.987C42.8707 40.845 45.3297 31.671 41.1867 24.497L37.1867 17.569C36.3587 16.134 34.5237 15.642 33.0887 16.471C31.6537 17.299 31.1627 19.134 31.9907 20.569L30.9907 18.837C30.1627 17.402 28.3277 16.91 26.8927 17.739C25.4577 18.567 24.9657 20.402 25.7947 21.837L24.7947 20.105C23.9667 18.67 22.1317 18.178 20.6967 19.007C19.2617 19.835 18.7697 21.67 19.5987 23.105L12.5987 10.981C11.7707 9.54601 9.93574 9.05401 8.50074 9.88301C7.06574 10.711 6.57372 12.546 7.40272 13.981L18.9027 33.9L15.4027 27.837Z" stroke="black" stroke-width="4" stroke-miterlimit="10" stroke-linecap="round" stroke-linejoin="round"/>
<path d="M16.1997 6.39701C24.4647 2.17801 34.8397 3.52701 41.7557 10.443" stroke="#105BFB" stroke-width="2" stroke-miterlimit="10" stroke-linecap="round" stroke-linejoin="round"/>
<path d="M16.1997 3V7L20.1997 8" stroke="#105BFB" stroke-width="2" stroke-miterlimit="10" stroke-linecap="round" stroke-linejoin="round"/>
</svg>
